<svg width="124" height="43" viewBox="0 0 124 43" fill="none" xmlns="http://www.w3.org/2000/svg">
    <g clip-path="url(#clip0_2_143)">
        <path d="M37.7943 7.85341C37.7943 7.34933 37.9903 6.90785 38.3817 6.53006C38.7467 6.1771 39.2034 6.00043 39.7516 6.00043C40.2212 6.00043 40.6776 6.1771 41.1215 6.53006C41.4864 6.95859 41.6693 7.3997 41.6693 7.85341V30.6594C41.6693 31.1891 41.4864 31.6302 41.1215 31.9831C40.7301 32.3613 40.2733 32.5505 39.7516 32.5505C39.2038 32.5505 38.7471 32.3613 38.3817 31.9831C37.9903 31.6302 37.7943 31.1891 37.7943 30.6594V7.85341Z" fill="#07D9B2" fill-opacity="0.9"/>
        <path d="M64.6218 13.9988C64.6218 13.4948 64.8179 13.0533 65.2093 12.6755C65.5742 12.3225 66.031 12.1459 66.5792 12.1459C67.0488 12.1459 67.5051 12.3225 67.949 12.6755C68.314 13.104 68.4968 13.5451 68.4968 13.9988V30.6591C68.4968 31.1887 68.314 31.6298 67.949 31.9828C67.5576 32.3609 67.1009 32.5502 66.5792 32.5502C66.0314 32.5502 65.5746 32.3609 65.2093 31.9828C64.8179 31.6298 64.6218 31.1887 64.6218 30.6591V13.9988Z" fill="white" fill-opacity="0.9"/>
        <path d="M68.6049 7.8966C68.6049 8.94398 67.7133 9.79311 66.6135 9.79311C65.5142 9.79311 64.6222 8.94398 64.6222 7.8966C64.6222 6.84958 65.5142 6.00008 66.6135 6.00008C67.7133 6.00008 68.6049 6.84958 68.6049 7.8966Z" fill="white" fill-opacity="0.9"/>
        <path d="M31.2328 8.00454C31.2328 7.50045 31.4289 7.05898 31.8203 6.68119C32.1852 6.32822 32.642 6.15156 33.1901 6.15156C33.6597 6.15156 34.1161 6.32822 34.56 6.68119C34.925 7.10971 35.1078 7.55083 35.1078 8.00454V30.6591C35.1078 31.1887 34.925 31.6298 34.56 31.9828C34.1686 32.3609 33.7119 32.5502 33.1901 32.5502C32.6424 32.5502 32.1856 32.3609 31.8203 31.9828C31.4289 31.6298 31.2328 31.1887 31.2328 30.6591V8.00454ZM20.9082 30.6591C20.9082 31.1887 20.7254 31.6298 20.3604 31.9828C19.969 32.3609 19.5123 32.5502 18.9906 32.5502C18.4428 32.5502 17.986 32.3609 17.6207 31.9828C17.2293 31.6298 17.0332 31.1887 17.0332 30.6591V8.00454C17.0332 7.50045 17.2293 7.05898 17.6207 6.68119C17.9856 6.32822 18.4424 6.15156 18.9906 6.15156C19.4602 6.15156 19.9165 6.32822 20.3604 6.68119C20.7254 7.10971 20.9082 7.55083 20.9082 8.00454V30.6591Z" fill="white" fill-opacity="0.9"/>
        <path d="M59.9323 6.15121C60.4019 6.15121 60.8583 6.32787 61.3022 6.68084C61.6936 7.05899 61.8893 7.51306 61.8893 8.04232C61.8893 8.57195 61.6936 9.01307 61.3022 9.36603C60.9108 9.74419 60.4541 9.93344 59.9323 9.93344H48.2696V17.5353V21.3172V30.6587C48.2696 31.188 48.0739 31.6295 47.6825 31.9824C47.2911 32.3606 46.8344 32.5498 46.3127 32.5498C45.7649 32.5498 45.3081 32.3606 44.9424 31.9824C44.551 31.6295 44.3553 31.188 44.3553 30.6587V14.2252C44.3553 14.2252 44.3701 8.51079 44.4339 7.70699C44.6258 6.7179 45.7645 6.15085 46.3123 6.15085H59.9316L59.9323 6.15121Z" fill="white" fill-opacity="0.9"/>
        <path d="M51.6875 21.3176C51.1582 21.3176 50.6946 21.1308 50.298 20.7581C49.9273 20.4105 49.7419 19.9755 49.7419 19.4534C49.7419 19.0062 49.9273 18.5716 50.298 18.1488C50.7479 17.8012 51.2111 17.6271 51.6875 17.6271H54.7253C55.2814 17.6271 55.7445 17.8012 56.1152 18.1488C56.5122 18.5215 56.7109 18.9565 56.7109 19.4534C56.7109 19.9751 56.5122 20.4101 56.1152 20.7581C55.7445 21.1308 55.2814 21.3176 54.7253 21.3176H51.6875Z" fill="white" fill-opacity="0.9"/>
        <path d="M24.5516 21.3176C24.0223 21.3176 23.5588 21.1308 23.1621 20.7581C22.7915 20.4105 22.606 19.9755 22.606 19.4534C22.606 19.0062 22.7915 18.5716 23.1621 18.1488C23.6121 17.8012 24.0752 17.6271 24.5516 17.6271H27.5894C28.1455 17.6271 28.6087 17.8012 28.9793 18.1488C29.3764 18.5215 29.5751 18.9565 29.5751 19.4534C29.5751 19.9751 29.3764 20.4101 28.9793 20.7581C28.6087 21.1308 28.1455 21.3176 27.5894 21.3176H24.5516Z" fill="white" fill-opacity="0.9"/>
        <path d="M73.3518 14.2985C73.1882 13.8189 73.2313 13.3422 73.4814 12.8673C73.7141 12.4243 74.0915 12.1214 74.6121 11.9602C75.0586 11.822 75.5501 11.8558 76.0866 12.0609C76.5732 12.3614 76.8905 12.7269 77.0375 13.1583L77.4682 14.4212L80.9718 24.6907L84.4754 14.4212L84.9061 13.1583C85.0531 12.7269 85.3704 12.3614 85.857 12.0609C86.3931 11.8558 86.8846 11.822 87.3315 11.9602C87.8525 12.1214 88.2299 12.4243 88.4622 12.8673C88.7119 13.3422 88.7554 13.8193 88.5918 14.2985L83.2899 29.8373L82.8615 31.093C82.69 31.5964 82.3598 31.9583 81.8732 32.1789C81.5895 32.3314 81.3054 32.4063 80.9809 32.4091H80.9775H80.9654H80.962C80.6375 32.4063 80.3534 32.3314 80.0696 32.1789C79.583 31.9583 79.2532 31.5964 79.0813 31.093L78.6529 29.8373L73.351 14.2985H73.3518Z" fill="white" fill-opacity="0.9"/>
        <path d="M110.413 29.2976C109.969 28.9446 109.513 28.768 109.043 28.768H97.3414V21.3176H106.236C106.792 21.3176 107.255 21.1308 107.626 20.7581C108.023 20.4101 108.221 19.9751 108.221 19.4534C108.221 18.9565 108.023 18.5215 107.626 18.1488C107.255 17.8012 106.792 17.6271 106.236 17.6271H97.3414V9.93343H109.043C109.566 9.93343 110.022 9.74418 110.413 9.36603C110.804 9.01306 111 8.57194 111 8.04232C111 7.51305 110.804 7.05898 110.413 6.68083C109.969 6.32786 109.513 6.1512 109.043 6.1512H95.3845C94.8363 6.1512 94.3799 6.32786 94.0146 6.68083C93.6232 7.05898 93.4275 7.51305 93.4275 8.04232V30.6591C93.4275 31.1883 93.6232 31.6298 94.0146 31.9828C94.3803 32.3609 94.8367 32.5502 95.3845 32.5502H109.043C109.566 32.5502 110.022 32.3609 110.413 31.9828C110.804 31.6298 111 31.1883 111 30.6591C111 30.1298 110.804 29.6757 110.413 29.2976Z" fill="white" fill-opacity="0.9"/>
    </g>
    <defs>
        <clipPath id="clip0_2_143">
            <rect width="94" height="37" fill="white" transform="translate(17 6)"/>
        </clipPath>
    </defs>
</svg>
