<svg width="124" height="54" viewBox="0 0 124 54" fill="none" xmlns="http://www.w3.org/2000/svg">
    <g clip-path="url(#clip0_2_140)">
        <path d="M18.6798 39.9154C18.3205 39.9154 18.0367 40.0501 17.8283 40.3187C17.6223 40.5851 17.5195 40.9517 17.5195 41.4195C17.5195 41.8836 17.6174 42.246 17.8124 42.5074C18.0105 42.765 18.2841 42.8941 18.6328 42.8941C19.0024 42.8941 19.2983 42.7571 19.5199 42.4827C19.7438 42.2084 19.8554 41.8392 19.8554 41.3747C19.8554 40.9186 19.7514 40.5608 19.5427 40.3028C19.3348 40.0451 19.0468 39.9158 18.6794 39.9158L18.6798 39.9154ZM20.3365 45.0209H19.8717V42.5355C19.7362 42.8068 19.5602 43.0136 19.3446 43.1551C19.1306 43.2936 18.8836 43.3631 18.602 43.3631C18.1179 43.3631 17.7297 43.1862 17.4379 42.8333C17.1465 42.4774 17.0004 42.0035 17.0004 41.4115C17.0004 40.8219 17.1487 40.3495 17.4459 39.9935C17.7426 39.6353 18.1361 39.4559 18.6259 39.4559C18.8938 39.4559 19.1363 39.5264 19.3522 39.668C19.5685 39.8091 19.7415 40.0087 19.8721 40.2667V39.5906H20.3369V45.0216L20.3365 45.0209Z" fill="#999999" fill-opacity="0.9"/>
        <path d="M22.5787 39.5894V41.3945C22.5787 41.9428 22.6527 42.3302 22.8018 42.5556C22.9524 42.7814 23.2067 42.8933 23.5634 42.8933C23.9174 42.8933 24.1716 42.7795 24.3253 42.5514C24.4786 42.3234 24.5556 41.9375 24.5556 41.3945V39.5894H25.0326V41.651C25.0326 42.213 24.9085 42.6395 24.6611 42.9301C24.4141 43.2185 24.0506 43.3623 23.5713 43.3623C23.0894 43.3623 22.7233 43.2185 22.4732 42.9301C22.2231 42.6395 22.0983 42.213 22.0983 41.651V39.5894H22.5787Z" fill="#999999" fill-opacity="0.9"/>
        <path d="M27.0202 41.4354C27.0202 41.9022 27.1203 42.2623 27.3211 42.515C27.5244 42.7673 27.8136 42.8937 28.1885 42.8937C28.5528 42.8937 28.8392 42.7567 29.0479 42.4824C29.2589 42.2054 29.3644 41.8251 29.3644 41.3413C29.3644 40.8989 29.26 40.551 29.0517 40.2986C28.8434 40.0432 28.5581 39.9154 28.1961 39.9154C27.8341 39.9154 27.5476 40.0516 27.3366 40.3229C27.1256 40.5919 27.0202 40.9627 27.0202 41.4354ZM29.3568 43.2037V42.5438C29.2418 42.8098 29.0806 43.0136 28.8722 43.1551C28.6666 43.2936 28.423 43.3631 28.1418 43.3631C27.644 43.3631 27.2429 43.1847 26.9386 42.8292C26.6365 42.4732 26.4855 42.0035 26.4855 41.4199C26.4855 40.8409 26.635 40.37 26.9344 40.0061C27.2342 39.6391 27.6208 39.4559 28.0951 39.4559C28.3896 39.4559 28.6431 39.5238 28.8567 39.66C29.073 39.7928 29.2396 39.9901 29.3572 40.2504V39.5906H29.8376V43.2044H29.3572L29.3568 43.2037Z" fill="#999999" fill-opacity="0.9"/>
        <path d="M32.1336 43.2033H31.6377V36.8881H32.1336V43.2033Z" fill="#999999" fill-opacity="0.9"/>
        <path d="M33.8408 38.1798C33.8408 38.0739 33.8772 37.984 33.9501 37.9111C34.0229 37.8352 34.1102 37.7969 34.2119 37.7969C34.3132 37.7969 34.4005 37.8352 34.4733 37.9111C34.5488 37.984 34.5868 38.0739 34.5868 38.1798C34.5868 38.2887 34.5503 38.3794 34.4775 38.453C34.4069 38.5258 34.3189 38.5626 34.2119 38.5626C34.1075 38.5626 34.0191 38.5258 33.9463 38.453C33.8761 38.3794 33.8408 38.2887 33.8408 38.1798ZM33.9618 43.2037V39.5898H34.4581V43.2037H33.9618Z" fill="#999999" fill-opacity="0.9"/>
        <path d="M36.3565 40.0174H35.7194V39.5894H36.3565V38.1065H36.829V39.5894H37.5245V40.0174H36.829V43.2033H36.3565V40.0174Z" fill="#999999" fill-opacity="0.9"/>
        <path d="M38.2466 39.5894H38.7585L39.7507 42.4171L40.6652 39.5894H41.1767L39.3834 45.0205H38.8871L39.4931 43.1794L38.2466 39.5894Z" fill="#999999" fill-opacity="0.9"/>
        <path d="M44.8168 42.5598L45.274 42.2869C45.3491 42.4877 45.4588 42.6394 45.6022 42.743C45.7457 42.8436 45.9213 42.8933 46.1297 42.8933C46.3327 42.8933 46.4939 42.8409 46.6142 42.7347C46.7337 42.6262 46.7937 42.4824 46.7937 42.3033C46.7937 42.0259 46.5577 41.791 46.0864 41.5982C46.0371 41.5789 45.9976 41.5626 45.9691 41.5493C45.6045 41.4002 45.3487 41.2465 45.2034 41.089C45.0577 40.9289 44.9845 40.7319 44.9845 40.4982C44.9845 40.1912 45.0888 39.94 45.2971 39.7442C45.5055 39.5462 45.7749 39.4471 46.1061 39.4471C46.3873 39.4471 46.6271 39.5109 46.8244 39.6384C47.0225 39.7662 47.1671 39.948 47.2581 40.1844L46.8168 40.4409C46.7622 40.2698 46.6711 40.1392 46.5436 40.0497C46.4158 39.9601 46.2594 39.915 46.0746 39.915C45.9081 39.915 45.7699 39.9666 45.6603 40.0698C45.5536 40.1704 45.5001 40.2967 45.5001 40.4485C45.5001 40.598 45.5536 40.7217 45.6603 40.8192C45.7673 40.9175 45.9885 41.0245 46.3247 41.1414C46.7045 41.2803 46.9599 41.4309 47.0904 41.5937C47.2232 41.7565 47.2896 41.9819 47.2896 42.2699C47.2896 42.6015 47.1762 42.866 46.9496 43.0644C46.7231 43.2629 46.4184 43.3623 46.0359 43.3623C45.7415 43.3623 45.4876 43.2929 45.274 43.1544C45.0626 43.0128 44.9105 42.8147 44.8168 42.5594V42.5598Z" fill="#999999" fill-opacity="0.9"/>
        <path d="M50.337 42.8937C50.7172 42.8937 51.039 42.751 51.3023 42.4661C51.5676 42.178 51.7007 41.8263 51.7007 41.4108C51.7007 40.9896 51.5691 40.6363 51.3061 40.3514C51.0432 40.066 50.7199 39.9234 50.337 39.9234C49.9568 39.9234 49.635 40.066 49.3721 40.3514C49.1091 40.6363 48.9774 40.9896 48.9774 41.4108C48.9774 41.8263 49.1091 42.178 49.3721 42.4661C49.635 42.751 49.9568 42.8937 50.337 42.8937ZM50.3214 43.3627C50.074 43.3627 49.8369 43.3111 49.61 43.2079C49.3834 43.1073 49.1778 42.962 48.9926 42.7719C48.8181 42.5928 48.6853 42.3864 48.5942 42.1526C48.5027 41.9185 48.4572 41.6688 48.4572 41.4028C48.4572 41.1395 48.5043 40.8894 48.598 40.653C48.6921 40.4166 48.8264 40.2079 49.0006 40.0262C49.1774 39.841 49.3796 39.6999 49.6062 39.602C49.8331 39.5044 50.071 39.4555 50.3214 39.4555C50.5764 39.4555 50.8189 39.5044 51.0481 39.602C51.2799 39.6999 51.4852 39.841 51.6655 40.0262C51.8449 40.2106 51.9819 40.4212 52.0756 40.6572C52.172 40.894 52.2198 41.1421 52.2198 41.4028C52.2198 41.6635 52.1732 41.9124 52.0791 42.1485C51.9857 42.3822 51.8499 42.5898 51.6727 42.7715C51.4905 42.9616 51.2822 43.1069 51.0481 43.2075C50.8159 43.3107 50.5738 43.3623 50.3214 43.3623V43.3627Z" fill="#999999" fill-opacity="0.9"/>
        <path d="M53.8101 43.2033V40.0171H53.1616V39.5891H53.8101V38.5459C53.8101 37.8208 53.875 37.3507 54.0052 37.1363C54.1357 36.9192 54.3736 36.8103 54.7204 36.8103C54.8066 36.8103 54.8881 36.8183 54.9663 36.835C55.0445 36.8487 55.1173 36.8691 55.1852 36.8961L55.0957 37.3355C55.0331 37.3029 54.9716 37.279 54.912 37.2623C54.8547 37.2463 54.8012 37.238 54.7519 37.238C54.5823 37.238 54.4628 37.3086 54.3926 37.4497C54.3224 37.5886 54.2867 37.8451 54.2867 38.22V39.5891H55.0486V40.0171H54.2867V43.2033H53.8105H53.8101Z" fill="#999999" fill-opacity="0.9"/>
        <path d="M56.3486 40.0174H55.7119V39.5894H56.3486V38.1065H56.8214V39.5894H57.517V40.0174H56.8214V43.2033H56.3486V40.0174Z" fill="#999999" fill-opacity="0.9"/>
        <path d="M59.5523 43.4355L58.1689 39.5894H58.6728L59.5751 42.1928L60.6656 39.3978L61.7516 42.1928L62.6578 39.5894H63.1617L61.7748 43.4355L60.6732 40.5593L59.5523 43.4355Z" fill="#999999" fill-opacity="0.9"/>
        <path d="M64.6032 41.4354C64.6032 41.9022 64.7034 42.2623 64.9037 42.515C65.1071 42.7673 65.3963 42.8937 65.7712 42.8937C66.1358 42.8937 66.4227 42.7567 66.6306 42.4824C66.842 42.2054 66.9475 41.8251 66.9475 41.3413C66.9475 40.8989 66.8431 40.551 66.6348 40.2986C66.4265 40.0432 66.1411 39.9154 65.7791 39.9154C65.4171 39.9154 65.1306 40.0516 64.9197 40.3229C64.7087 40.5919 64.6032 40.9627 64.6032 41.4354ZM66.9395 43.2037V42.5438C66.8249 42.8098 66.6632 43.0136 66.4549 43.1551C66.2493 43.2936 66.006 43.3631 65.7245 43.3631C65.227 43.3631 64.8259 43.1847 64.5212 42.8292C64.2192 42.4732 64.0686 42.0035 64.0686 41.4199C64.0686 40.8409 64.2181 40.37 64.5175 40.0061C64.8168 39.6391 65.2039 39.4559 65.6778 39.4559C65.9723 39.4559 66.2261 39.5238 66.4397 39.66C66.656 39.7928 66.8226 39.9901 66.9399 40.2504V39.5906H67.4202V43.2044H66.9399L66.9395 43.2037Z" fill="#999999" fill-opacity="0.9"/>
        <path d="M69.6696 40.3149C69.8468 40.0023 70.0199 39.7811 70.1895 39.6509C70.3614 39.5204 70.5606 39.4551 70.7871 39.4551C70.855 39.4551 70.923 39.4619 70.9905 39.4756C71.0607 39.4893 71.1301 39.5086 71.1977 39.5325L71.0417 40.0053C70.9897 39.989 70.9347 39.975 70.8774 39.9643C70.8228 39.9533 70.7693 39.9476 70.7173 39.9476C70.4281 39.9476 70.1811 40.0896 69.9755 40.3719C69.7721 40.6546 69.6704 41.0059 69.6704 41.4271V43.2033H69.19V39.5894H69.6704V40.3146L69.6696 40.3149Z" fill="#999999" fill-opacity="0.9"/>
        <path d="M74.5995 40.9831C74.5759 40.6515 74.4704 40.395 74.283 40.2132C74.0955 40.0311 73.8417 39.94 73.5211 39.94C73.2296 39.94 72.9849 40.0353 72.7868 40.2254C72.5914 40.4155 72.4779 40.6678 72.4472 40.9831H74.5998H74.5995ZM75.1698 41.4112H72.4157C72.4286 41.8783 72.5406 42.2448 72.7515 42.5112C72.9625 42.7776 73.2452 42.9104 73.5992 42.9104C73.8542 42.9104 74.0785 42.8387 74.2712 42.6945C74.464 42.551 74.6241 42.3332 74.7516 42.0426L75.1933 42.2953C75.0161 42.6618 74.7987 42.9324 74.5406 43.1062C74.2856 43.2773 73.9718 43.3631 73.5992 43.3631C73.0911 43.3631 72.6798 43.1862 72.3649 42.8333C72.0522 42.4774 71.8959 42.0118 71.8959 41.4362C71.8959 40.8439 72.0507 40.3658 72.3607 40.0019C72.6734 39.638 73.0809 39.4559 73.5837 39.4559C74.0629 39.4559 74.4469 39.6243 74.7361 39.9613C75.0252 40.2956 75.1694 40.7422 75.1694 41.3019V41.4119L75.1698 41.4112Z" fill="#999999" fill-opacity="0.9"/>
        <path d="M79.0405 42.5598L79.4978 42.2869C79.5733 42.4877 79.6826 42.6394 79.826 42.743C79.9694 42.8436 80.1451 42.8933 80.3534 42.8933C80.5568 42.8933 80.7181 42.8409 80.838 42.7347C80.9579 42.6262 81.0179 42.4824 81.0179 42.3033C81.0179 42.0259 80.7818 41.791 80.3102 41.5982C80.2609 41.5789 80.2218 41.5626 80.1929 41.5493C79.8283 41.4002 79.5729 41.2465 79.4272 41.089C79.2815 40.9289 79.2083 40.7319 79.2083 40.4982C79.2083 40.1912 79.3126 39.94 79.5209 39.7442C79.7296 39.5462 79.999 39.4471 80.3299 39.4471C80.6111 39.4471 80.8509 39.5109 81.0486 39.6384C81.2467 39.7662 81.3909 39.948 81.4823 40.1844L81.0406 40.4409C80.9864 40.2698 80.8949 40.1392 80.7674 40.0497C80.6395 39.9601 80.4836 39.915 80.2984 39.915C80.1318 39.915 79.9937 39.9666 79.8844 40.0698C79.7774 40.1704 79.7243 40.2967 79.7243 40.4485C79.7243 40.598 79.7774 40.7217 79.8844 40.8192C79.9911 40.9175 80.2127 41.0245 80.5481 41.1414C80.9287 41.2803 81.1837 41.4309 81.3142 41.5937C81.4474 41.7565 81.5134 41.9819 81.5134 42.2699C81.5134 42.6015 81.4 42.866 81.1738 43.0644C80.9469 43.2629 80.6426 43.3623 80.2597 43.3623C79.9653 43.3623 79.7114 43.2929 79.4978 43.1544C79.2868 43.0128 79.1346 42.8147 79.0405 42.5594V42.5598Z" fill="#999999" fill-opacity="0.9"/>
        <path d="M84.5608 42.8937C84.9406 42.8937 85.2628 42.751 85.5253 42.4661C85.7913 42.178 85.9241 41.8263 85.9241 41.4108C85.9241 40.9896 85.7929 40.6363 85.5295 40.3514C85.2666 40.066 84.9433 39.9234 84.5608 39.9234C84.1802 39.9234 83.8584 40.066 83.5958 40.3514C83.3325 40.6363 83.2012 40.9896 83.2012 41.4108C83.2012 41.8263 83.3325 42.178 83.5958 42.4661C83.8584 42.751 84.1802 42.8937 84.5608 42.8937ZM84.5448 43.3627C84.2974 43.3627 84.0607 43.3111 83.8338 43.2079C83.6068 43.1073 83.4016 42.962 83.2164 42.7719C83.0418 42.5928 82.909 42.3864 82.8176 42.1526C82.7265 41.9185 82.6806 41.6688 82.6806 41.4028C82.6806 41.1395 82.728 40.8894 82.8218 40.653C82.9155 40.4166 83.0494 40.2079 83.224 40.0262C83.4012 39.841 83.603 39.6999 83.8296 39.602C84.0565 39.5044 84.2944 39.4555 84.5448 39.4555C84.7998 39.4555 85.0423 39.5044 85.2715 39.602C85.5033 39.6999 85.709 39.841 85.8889 40.0262C86.0687 40.2106 86.2057 40.4212 86.299 40.6572C86.3958 40.894 86.4436 41.1421 86.4436 41.4028C86.4436 41.6635 86.3969 41.9124 86.3028 42.1485C86.2095 42.3822 86.0736 42.5898 85.8964 42.7715C85.7139 42.9616 85.506 43.1069 85.2715 43.2075C85.0396 43.3107 84.7972 43.3623 84.5448 43.3623V43.3627Z" fill="#999999" fill-opacity="0.9"/>
        <path d="M88.4475 43.2033H87.9516V36.8881H88.4475V43.2033Z" fill="#999999" fill-opacity="0.9"/>
        <path d="M90.725 39.5894V41.3945C90.725 41.9428 90.799 42.3302 90.9477 42.5556C91.0987 42.7814 91.3526 42.8933 91.71 42.8933C92.0633 42.8933 92.3183 42.7795 92.4712 42.5514C92.6249 42.3234 92.7019 41.9375 92.7019 41.3945V39.5894H93.1789V41.651C93.1789 42.213 93.0548 42.6395 92.807 42.9301C92.5604 43.2185 92.1968 43.3623 91.7172 43.3623C91.2357 43.3623 90.8695 43.2185 90.6191 42.9301C90.3694 42.6395 90.2442 42.213 90.2442 41.651V39.5894H90.725Z" fill="#999999" fill-opacity="0.9"/>
        <path d="M95.0458 40.0174H94.4087V39.5894H95.0458V38.1065H95.5182V39.5894H96.2133V40.0174H95.5182V43.2033H95.0458V40.0174Z" fill="#999999" fill-opacity="0.9"/>
        <path d="M97.319 38.1798C97.319 38.0739 97.3555 37.984 97.4276 37.9111C97.5008 37.8352 97.5885 37.7969 97.6898 37.7969C97.7918 37.7969 97.8784 37.8352 97.9516 37.9111C98.0267 37.984 98.0647 38.0739 98.0647 38.1798C98.0647 38.2887 98.0282 38.3794 97.955 38.453C97.8852 38.5258 97.7964 38.5626 97.6898 38.5626C97.5858 38.5626 97.497 38.5258 97.4242 38.453C97.354 38.3794 97.319 38.2887 97.319 38.1798ZM97.4401 43.2037V39.5898H97.936V43.2037H97.4401Z" fill="#999999" fill-opacity="0.9"/>
        <path d="M101.323 42.8937C101.703 42.8937 102.025 42.751 102.288 42.4661C102.553 42.178 102.686 41.8263 102.686 41.4108C102.686 40.9896 102.555 40.6363 102.291 40.3514C102.029 40.066 101.706 39.9234 101.323 39.9234C100.942 39.9234 100.62 40.066 100.358 40.3514C100.095 40.6363 99.9631 40.9896 99.9631 41.4108C99.9631 41.8263 100.095 42.178 100.358 42.4661C100.62 42.751 100.942 42.8937 101.323 42.8937ZM101.307 43.3627C101.06 43.3627 100.822 43.3111 100.596 43.2079C100.369 43.1073 100.163 42.962 99.9786 42.7719C99.8041 42.5928 99.6713 42.3864 99.5794 42.1526C99.4884 41.9185 99.4425 41.6688 99.4425 41.4028C99.4425 41.1395 99.4899 40.8894 99.5836 40.653C99.6773 40.4166 99.8117 40.2079 99.9862 40.0262C100.163 39.841 100.365 39.6999 100.591 39.602C100.818 39.5044 101.057 39.4555 101.307 39.4555C101.562 39.4555 101.804 39.5044 102.033 39.602C102.265 39.6999 102.471 39.841 102.651 40.0262C102.831 40.2106 102.968 40.4212 103.061 40.6572C103.157 40.894 103.206 41.1421 103.206 41.4028C103.206 41.6635 103.158 41.9124 103.065 42.1485C102.971 42.3822 102.835 42.5898 102.658 42.7715C102.477 42.9616 102.268 43.1069 102.033 43.2075C101.802 43.3107 101.56 43.3623 101.307 43.3623V43.3627Z" fill="#999999" fill-opacity="0.9"/>
        <path d="M104.682 43.2033V39.5894H105.139V40.1476C105.28 39.9165 105.451 39.7439 105.655 39.63C105.861 39.5132 106.096 39.4547 106.362 39.4547C106.756 39.4547 107.061 39.5689 107.28 39.797C107.499 40.0254 107.609 40.3426 107.609 40.7502V43.2029H107.12V40.974C107.12 40.6128 107.047 40.3453 106.901 40.1715C106.758 39.9947 106.535 39.9067 106.233 39.9067C105.866 39.9067 105.595 40.0209 105.421 40.2485C105.249 40.4743 105.163 40.8299 105.163 41.3163V43.2026H104.682V43.2033Z" fill="#999999" fill-opacity="0.9"/>
        <path d="M108.94 42.5598L109.397 42.2869C109.473 42.4877 109.583 42.6394 109.726 42.743C109.869 42.8436 110.044 42.8933 110.253 42.8933C110.456 42.8933 110.617 42.8409 110.737 42.7347C110.857 42.6262 110.917 42.4824 110.917 42.3033C110.917 42.0259 110.681 41.791 110.209 41.5982C110.16 41.5789 110.121 41.5626 110.092 41.5493C109.728 41.4002 109.472 41.2465 109.327 41.089C109.181 40.9289 109.108 40.7319 109.108 40.4982C109.108 40.1912 109.212 39.94 109.421 39.7442C109.629 39.5462 109.898 39.4471 110.229 39.4471C110.511 39.4471 110.75 39.5109 110.948 39.6384C111.146 39.7662 111.29 39.948 111.381 40.1844L110.94 40.4409C110.886 40.2698 110.795 40.1392 110.667 40.0497C110.539 39.9601 110.383 39.915 110.198 39.915C110.031 39.915 109.893 39.9666 109.784 40.0698C109.677 40.1704 109.624 40.2967 109.624 40.4485C109.624 40.598 109.677 40.7217 109.784 40.8192C109.891 40.9175 110.112 41.0245 110.448 41.1414C110.828 41.2803 111.083 41.4309 111.214 41.5937C111.347 41.7565 111.413 41.9819 111.413 42.2699C111.413 42.6015 111.299 42.866 111.073 43.0644C110.846 43.2629 110.542 43.3623 110.159 43.3623C109.865 43.3623 109.611 43.2929 109.397 43.1544C109.186 43.0128 109.034 42.8147 108.94 42.5594V42.5598Z" fill="#999999" fill-opacity="0.9"/>
        <path d="M37.8857 7.95464C37.8857 7.42303 38.0826 6.95745 38.4758 6.55902C38.8423 6.18678 39.3011 6.00047 39.8516 6.00047C40.3233 6.00047 40.7817 6.18678 41.2275 6.55902C41.5941 7.01095 41.7777 7.47616 41.7777 7.95464V32.0061C41.7777 32.5647 41.5941 33.0299 41.2275 33.4021C40.8344 33.8009 40.3757 34.0005 39.8516 34.0005C39.3014 34.0005 38.8427 33.8009 38.4758 33.4021C38.0826 33.0299 37.8857 32.5647 37.8857 32.0061V7.95464Z" fill="#07D9B2" fill-opacity="0.9"/>
        <path d="M64.8313 14.4357C64.8313 13.9041 65.0282 13.4385 65.4213 13.04C65.7878 12.6678 66.2466 12.4815 66.7972 12.4815C67.2688 12.4815 67.7272 12.6678 68.1731 13.04C68.5396 13.492 68.7233 13.9572 68.7233 14.4357V32.0057C68.7233 32.5643 68.5396 33.0295 68.1731 33.4017C67.78 33.8005 67.3212 34.0001 66.7972 34.0001C66.247 34.0001 65.7882 33.8005 65.4213 33.4017C65.0282 33.0295 64.8313 32.5643 64.8313 32.0057V14.4357Z" fill="white" fill-opacity="0.9"/>
        <path d="M68.8318 8.00018C68.8318 9.10476 67.9363 10.0003 66.8317 10.0003C65.7275 10.0003 64.8316 9.10476 64.8316 8.00018C64.8316 6.89597 65.7275 6.00009 66.8317 6.00009C67.9363 6.00009 68.8318 6.89597 68.8318 8.00018Z" fill="white" fill-opacity="0.9"/>
        <path d="M31.2954 8.11401C31.2954 7.5824 31.4923 7.11681 31.8855 6.71839C32.252 6.34615 32.7108 6.15984 33.2613 6.15984C33.733 6.15984 34.1914 6.34615 34.6372 6.71839C35.0038 7.17031 35.1874 7.63552 35.1874 8.11401V32.0057C35.1874 32.5643 35.0038 33.0295 34.6372 33.4017C34.2441 33.8005 33.7854 34.0001 33.2613 34.0001C32.7111 34.0001 32.2524 33.8005 31.8855 33.4017C31.4923 33.0295 31.2954 32.5643 31.2954 32.0057V8.11401ZM20.9254 32.0057C20.9254 32.5643 20.7418 33.0295 20.3752 33.4017C19.9821 33.8005 19.5233 34.0001 18.9993 34.0001C18.4491 34.0001 17.9904 33.8005 17.6234 33.4017C17.2303 33.0295 17.0334 32.5643 17.0334 32.0057V8.11401C17.0334 7.5824 17.2303 7.11681 17.6234 6.71839C17.99 6.34615 18.4487 6.15984 18.9993 6.15984C19.471 6.15984 19.9294 6.34615 20.3752 6.71839C20.7418 7.17031 20.9254 7.63552 20.9254 8.11401V32.0057Z" fill="white" fill-opacity="0.9"/>
        <path d="M60.1211 6.15947C60.5928 6.15947 61.0512 6.34578 61.497 6.71802C61.8901 7.11682 62.0867 7.59569 62.0867 8.15386C62.0867 8.71241 61.8901 9.17762 61.497 9.54986C61.1039 9.94866 60.6452 10.1483 60.1211 10.1483H48.4071V18.1653V22.1537V32.0054C48.4071 32.5635 48.2106 33.0291 47.8175 33.4014C47.4243 33.8002 46.9656 33.9998 46.4416 33.9998C45.8914 33.9998 45.4326 33.8002 45.0653 33.4014C44.6722 33.0291 44.4756 32.5635 44.4756 32.0054V14.6743C44.4756 14.6743 44.4904 8.6479 44.5546 7.80021C44.7473 6.7571 45.891 6.15909 46.4412 6.15909H60.1204L60.1211 6.15947Z" fill="white" fill-opacity="0.9"/>
        <path d="M51.84 22.1541C51.3084 22.1541 50.8428 21.9571 50.4444 21.564C50.0721 21.1975 49.8858 20.7387 49.8858 20.1881C49.8858 19.7165 50.0721 19.2581 50.4444 18.8122C50.8963 18.4457 51.3615 18.262 51.84 18.262H54.8912C55.4497 18.262 55.9149 18.4457 56.2872 18.8122C56.686 19.2054 56.8856 19.6641 56.8856 20.1881C56.8856 20.7383 56.686 21.1971 56.2872 21.564C55.9149 21.9571 55.4497 22.1541 54.8912 22.1541H51.84Z" fill="white" fill-opacity="0.9"/>
        <path d="M24.5848 22.1541C24.0532 22.1541 23.5876 21.9571 23.1892 21.564C22.817 21.1975 22.6307 20.7387 22.6307 20.1881C22.6307 19.7165 22.817 19.2581 23.1892 18.8122C23.6411 18.4457 24.1064 18.262 24.5848 18.262H27.636C28.1946 18.262 28.6598 18.4457 29.032 18.8122C29.4308 19.2054 29.6304 19.6641 29.6304 20.1881C29.6304 20.7383 29.4308 21.1971 29.032 21.564C28.6598 21.9571 28.1946 22.1541 27.636 22.1541H24.5848Z" fill="white" fill-opacity="0.9"/>
        <path d="M73.5996 14.7517C73.4353 14.2459 73.4786 13.7432 73.7297 13.2423C73.9635 12.7752 74.3426 12.4557 74.8654 12.2857C75.314 12.14 75.8076 12.1756 76.3464 12.3919C76.8352 12.7088 77.1539 13.0943 77.3015 13.5493L77.7341 14.8811L81.2531 25.7114L84.7721 14.8811L85.2047 13.5493C85.3523 13.0943 85.6711 12.7088 86.1598 12.3919C86.6982 12.1756 87.1919 12.14 87.6408 12.2857C88.164 12.4557 88.5431 12.7752 88.7765 13.2423C89.0273 13.7432 89.0709 14.2463 88.9066 14.7517L83.5814 31.1391L83.1511 32.4633C82.9789 32.9942 82.6472 33.3759 82.1585 33.6085C81.8735 33.7694 81.5882 33.8483 81.2622 33.8514H81.2588H81.2467H81.2433C80.9173 33.8483 80.632 33.7694 80.347 33.6085C79.8583 33.3759 79.527 32.9942 79.3543 32.4633L78.924 31.1391L73.5988 14.7517H73.5996Z" fill="white" fill-opacity="0.9"/>
        <path d="M110.823 30.5699C110.378 30.1976 109.919 30.0113 109.448 30.0113H97.6947V22.1541H106.628C107.187 22.1541 107.652 21.9571 108.024 21.564C108.423 21.1971 108.623 20.7383 108.623 20.1881C108.623 19.6641 108.423 19.2054 108.024 18.8122C107.652 18.4457 107.187 18.262 106.628 18.262H97.6947V10.1482H109.448C109.973 10.1482 110.431 9.94865 110.823 9.54984C111.216 9.1776 111.413 8.7124 111.413 8.15385C111.413 7.59567 111.216 7.11681 110.823 6.71801C110.378 6.34576 109.919 6.15945 109.448 6.15945H95.7292C95.1786 6.15945 94.7202 6.34576 94.3533 6.71801C93.9602 7.11681 93.7636 7.59567 93.7636 8.15385V32.0057C93.7636 32.5639 93.9602 33.0295 94.3533 33.4017C94.7206 33.8005 95.1789 34.0001 95.7292 34.0001H109.448C109.973 34.0001 110.431 33.8005 110.823 33.4017C111.216 33.0295 111.413 32.5639 111.413 32.0057C111.413 31.4476 111.216 30.9687 110.823 30.5699Z" fill="white" fill-opacity="0.9"/>
    </g>
    <defs>
        <clipPath id="clip0_2_140">
            <rect width="94.4134" height="39.0206" fill="white" transform="translate(17 6)"/>
        </clipPath>
    </defs>
</svg>
